# xmcd
#
# Track frame offsets:
#	150
#	15862
#	33817
#	51905
#	71767
#	88997
#	102517
#	118750
#	137782
#	154112
#	158765
#	175650
#	182765
#	202162
#	217580
#	239225
#	248915
#	268307
#
# Disc length: 3796 seconds
#
# Revision: 31
# Processed by: cddbd v1.5.2PL0 Copyright (c) Steve Scherf et al.
# Submitted via: EasyCDDAExtractor 2011.0.0.0
#
DISCID=040ed212
DTITLE=Moby - Play
DYEAR=1999
DGENRE=Electronic
TTITLE0=Honey
TTITLE1=Find my baby
TTITLE2=Porcelain
TTITLE3=Why does my heart feel so bad?
TTITLE4=South side
TTITLE5=Rushing
TTITLE6=Bodyrock
TTITLE7=Natural blues
TTITLE8=Machete
TTITLE9=7
TTITLE10=Run on
TTITLE11=Down slow
TTITLE12=If things were perfect
TTITLE13=Everloving
TTITLE14=Inside
TTITLE15=Guitar flute and string
TTITLE16=The sky is broken
TTITLE17=My weakness
EXTD=YEAR: 1999
EXTT0=
EXTT1=
EXTT2=
EXTT3=
EXTT4=
EXTT5=
EXTT6=
EXTT7=
EXTT8=
EXTT9=
EXTT10=
EXTT11=
EXTT12=
EXTT13=
EXTT14=
EXTT15=
EXTT16=
EXTT17=
PLAYORDER=
